<svg id="Layer_1" data-name="Layer 1" xmlns="http://www.w3.org/2000/svg" viewBox="0 0 159 193"><defs><style>.cls-1,.cls-2{fill:none;}.cls-2{stroke:#000;stroke-miterlimit:10;stroke-width:19px;}</style></defs><title>Lock</title><path d="M735.64,354H631.36A27.44,27.44,0,0,0,604,381.36v71.28A27.44,27.44,0,0,0,631.36,480H735.64A27.44,27.44,0,0,0,763,452.64V381.36A27.44,27.44,0,0,0,735.64,354ZM689.5,424.7V438a5.51,5.51,0,0,1-11,0l0-12.92a14.5,14.5,0,1,1,11.06-.39Z" transform="translate(-604 -287)"/><path class="cls-1" d="M698,411.5a14.48,14.48,0,0,1-8.5,13.2V438a5.51,5.51,0,0,1-11,0l0-12.92A14.5,14.5,0,1,1,698,411.5Z" transform="translate(-604 -287)"/><path class="cls-2" d="M633.51,345.5a49.49,49.49,0,0,1,99,0" transform="translate(-604 -287)"/></svg>