<svg id="Layer_1" data-name="Layer 1" xmlns="http://www.w3.org/2000/svg" viewBox="0 0 210.5 213.83"><defs><style>.cls-1{fill:none;}.cls-1,.cls-3{stroke:#000;}.cls-1,.cls-2,.cls-3{stroke-miterlimit:10;stroke-width:5px;}.cls-2{stroke:#fff;}.cls-3{fill:#fff;}</style></defs><title>Stopwatch</title><path class="cls-1" d="M692.08,307.07c1.14-.05,2.28-.07,3.42-.07A90.5,90.5,0,1,1,629,458.83" transform="translate(-578 -276.67)"/><line class="cls-1" x1="116.5" y1="30.83" x2="116.5" y2="47.83"/><line class="cls-1" x1="71.82" y1="197.59" x2="80.32" y2="182.86"/><line class="cls-1" x1="116.5" y1="209.83" x2="116.5" y2="192.83"/><line class="cls-1" x1="161.32" y1="198.09" x2="152.82" y2="183.36"/><line class="cls-1" x1="194.26" y1="165.51" x2="179.54" y2="157.01"/><line class="cls-1" x1="206.5" y1="120.83" x2="189.5" y2="120.83"/><line class="cls-1" x1="194.76" y1="76.01" x2="180.04" y2="84.51"/><line class="cls-1" x1="162.18" y1="43.07" x2="153.68" y2="57.79"/><line class="cls-1" x1="51" y1="165.83" x2="87" y2="165.83"/><line class="cls-1" x1="39" y1="144.83" x2="87" y2="144.83"/><line class="cls-1" x1="23" y1="120.83" x2="87" y2="120.83"/><line class="cls-1" y1="97.83" x2="87" y2="97.83"/><line class="cls-1" x1="20" y1="75.83" x2="87" y2="75.83"/><line class="cls-1" x1="36" y1="54.83" x2="86.5" y2="54.83"/><circle class="cls-2" cx="121" cy="121.33" r="12.02"/><line class="cls-3" x1="120.5" y1="120.83" x2="153.5" y2="84.83"/><line class="cls-3" x1="146.85" y1="35.2" x2="152.5" y2="20.83"/><rect class="cls-3" x="717.5" y="284.5" width="32" height="12" transform="translate(-451.44 -490.2) rotate(18.1)"/></svg>